<?xml version="1.0" encoding="UTF-8"?>
<svg id="a" xmlns="http://www.w3.org/2000/svg" viewBox="0 0 5.25 5.25">
  <line x1=".12" y1="2.48" x2=".73" y2="2.48" fill="none" stroke="#81c341" stroke-linecap="round" stroke-miterlimit="10" stroke-width=".25"/>
  <line x1="1.3" y1="1.23" x2=".79" y2=".69" fill="none" stroke="#81c341" stroke-linecap="round" stroke-miterlimit="10" stroke-width=".25"/>
  <line x1="2.69" y1=".12" x2="2.69" y2=".69" fill="none" stroke="#81c341" stroke-linecap="round" stroke-miterlimit="10" stroke-width=".25"/>
  <line x1="4.05" y1="1.23" x2="4.54" y2=".72" fill="none" stroke="#81c341" stroke-linecap="round" stroke-miterlimit="10" stroke-width=".25"/>
  <line x1="4.48" y1="2.52" x2="5.12" y2="2.52" fill="none" stroke="#81c341" stroke-linecap="round" stroke-miterlimit="10" stroke-width=".25"/>
  <path d="M3.24,4.26h-1.22v.65c0,.12.1.22.21.22h.8c.12,0,.21-.1.21-.22v-.65Z" fill="none" stroke="#81c341" stroke-miterlimit="10" stroke-width=".25"/>
  <path d="M2.02,4.26l-.57-.77c-.17-.23-.26-.5-.26-.79v-.16c0-.32.11-.62.31-.86h0c.24-.29.58-.45.93-.45h.3c.36,0,.71.16.94.45h0c.19.24.3.54.3.85v.2c0,.27-.08.53-.23.75l-.53.78" fill="none" stroke="#81c341" stroke-miterlimit="10" stroke-width=".25"/>
</svg>