<?xml version="1.0" encoding="UTF-8"?><svg id="a" xmlns="http://www.w3.org/2000/svg" viewBox="0 0 16 16"><path d="M6.75,8.61h-2.79c-.42,0-.72.11-.92.34-.2.21-.3.47-.3.78s.1.58.3.8c.2.2.5.31.92.32h2.79v1.05h-2.92c-.74,0-1.3-.2-1.67-.58-.38-.38-.56-.88-.56-1.51,0-.32.07-.63.22-.92.08-.14.19-.27.34-.4.15-.13.33-.25.55-.36v-.02c-.41-.11-.72-.33-.93-.67-.2-.35-.3-.72-.3-1.13,0-.67.21-1.21.61-1.6.4-.41.89-.61,1.49-.61h3.18v4.5M5.61,7.56v-2.35h-1.76c-.43,0-.74.13-.93.36-.2.23-.3.5-.3.81s.1.6.3.82c.2.22.51.34.93.35h1.76Z" fill="#80c241"/><path d="M9.25,8.61v-4.5h3.18c.59,0,1.09.2,1.49.61.4.39.6.92.61,1.6,0,.41-.1.78-.3,1.13-.21.33-.52.56-.93.67v.02c.22.11.4.23.55.36.15.12.26.26.34.4.16.29.23.6.22.92,0,.63-.19,1.13-.56,1.51-.37.38-.93.57-1.67.58h-2.92v-1.05h2.79c.42,0,.72-.11.92-.32.2-.22.3-.49.3-.8,0-.31-.1-.58-.3-.78-.2-.23-.5-.34-.92-.34h-2.79M12.16,7.56c.43,0,.74-.12.93-.35.2-.23.3-.5.3-.82,0-.31-.1-.59-.3-.81-.2-.23-.51-.35-.93-.36h-1.76s0,2.35,0,2.35h1.76Z" fill="#80c241"/><rect x="7.38" y="4.11" width="1.13" height="1.08" fill="#80c241"/><rect x="7.38" y="6.29" width="1.13" height="5.6" fill="#80c241"/></svg>