<?xml version="1.0" encoding="UTF-8"?><svg id="a" xmlns="http://www.w3.org/2000/svg" viewBox="0 0 12.25 8.44"><ellipse cx="8.4" cy="5.36" rx=".96" ry=".89" fill="none" stroke="#81c341" stroke-miterlimit="10" stroke-width=".5"/><polyline points="5.45 .19 3.73 1.6 5.39 3.14" fill="none" stroke="#81c341" stroke-miterlimit="10" stroke-width=".5"/><path d="M3.73,1.6h5.53c.23,0,.45.08.62.23l1.85,1.68c.17.15.27.37.27.59v1.85c0,.22-.09.42-.25.58l-1.52,1.42c-.16.15-.39.24-.63.24h-4.35c-.23,0-.46-.09-.62-.24l-1.08-1" fill="none" stroke="#81c341" stroke-miterlimit="10" stroke-width=".5"/><line x1="7.44" y1="5.36" x2="3.19" y2="5.36" fill="none" stroke="#81c341" stroke-miterlimit="10" stroke-width=".5"/><path d="M3.01,4h-1.36c-.1,0-.18.07-.18.17v2.38c0,.09.08.17.18.17h1.36c.1,0,.18-.07.18-.17v-2.38c0-.09-.08-.17-.18-.17Z" fill="none" stroke="#81c341" stroke-miterlimit="10" stroke-width=".5"/><line x1="1.47" y1="5.36" y2="5.36" fill="none" stroke="#81c341" stroke-miterlimit="10" stroke-width=".5"/></svg>