<?xml version="1.0" encoding="UTF-8"?>
<svg id="a" xmlns="http://www.w3.org/2000/svg" viewBox="0 0 5.25 5.25">
  <ellipse cx=".62" cy=".56" rx=".48" ry=".43" fill="none" stroke="#81c341" stroke-miterlimit="10" stroke-width=".25"/>
  <ellipse cx="3.6" cy="2.49" rx=".53" ry=".47" fill="none" stroke="#81c341" stroke-miterlimit="10" stroke-width=".25"/>
  <ellipse cx="1.76" cy="4.66" rx=".53" ry=".47" fill="none" stroke="#81c341" stroke-miterlimit="10" stroke-width=".25"/>
  <path d="M1.08.47h2.92c.09,0,.19.03.25.09l.73.62c.07.06.11.15.11.24v.88" fill="none" stroke="#81c341" stroke-miterlimit="10" stroke-width=".25"/>
  <polyline points="3.08 2.46 .8 2.46 .12 3.06 .12 3.92 .74 4.41 1.38 4.41" fill="none" stroke="#81c341" stroke-miterlimit="10" stroke-width=".25"/>
  <path d="M2.27,4.66l1.87-.03c.05,0,.1-.02.14-.05l.76-.56c.05-.04.08-.09.08-.15v-.48" fill="none" stroke="#81c341" stroke-miterlimit="10" stroke-width=".25"/>
</svg>